<svg width="323px" height="44px" viewBox="0 0 323 44" version="1.1" xmlns="http://www.w3.org/2000/svg" xmlns:xlink="http://www.w3.org/1999/xlink">
        <path d="M0.72,43 L0.72,1 L16.92,1 C31.92,1 40.62,9.64 40.62,21.76 L40.62,21.88 C40.62,34 31.8,43 16.68,43 L0.72,43 Z M12.36,32.68 L17.1,32.68 C24.06,32.68 28.68,28.84 28.68,22.06 L28.68,21.94 C28.68,15.22 24.06,11.32 17.1,11.32 L12.36,11.32 L12.36,32.68 Z M44.62,43 L78.7,43 L78.7,33.1 L56.14,33.1 L56.14,26.44 L76.3,26.44 L76.3,17.26 L56.14,17.26 L56.14,10.9 L78.4,10.9 L78.4,1 L44.62,1 L44.62,43 Z M102.56,43.84 C111.86,43.84 117.2,39.82 121.16,34.36 L112.4,28.12 C109.88,31.18 107.3,33.22 102.92,33.22 C97.04,33.22 92.9,28.3 92.9,22 L92.9,21.88 C92.9,15.76 97.04,10.78 102.92,10.78 C106.94,10.78 109.7,12.7 112.1,15.7 L120.86,8.92 C117.14,3.76 111.62,0.16 103.04,0.16 C90.32,0.16 80.9,9.76 80.9,22 L80.9,22.12 C80.9,34.66 90.56,43.84 102.56,43.84 Z M124.38,43 L136.08,43 L136.08,1 L124.38,1 L124.38,43 Z M158.26,43.72 C168.46,43.72 175.24,38.62 175.24,30.04 L175.24,29.92 C175.24,22.06 169.24,18.94 159.58,16.84 C153.76,15.52 152.32,14.68 152.32,12.76 L152.32,12.64 C152.32,11.14 153.7,9.94 156.52,9.94 C160.24,9.94 164.44,11.38 168.28,14.08 L174.1,5.86 C169.54,2.2 163.96,0.28 156.82,0.28 C146.74,0.28 140.56,5.92 140.56,13.72 L140.56,13.84 C140.56,22.48 147.46,25 156.4,27.04 C162.1,28.36 163.48,29.32 163.48,31.06 L163.48,31.18 C163.48,32.98 161.8,34.06 158.68,34.06 C153.82,34.06 149.2,32.32 145.06,29.02 L138.58,36.76 C143.74,41.38 150.82,43.72 158.26,43.72 Z M179.12,43 L190.82,43 L190.82,1 L179.12,1 L179.12,43 Z M217.62,43.84 C204.66,43.84 195.06,34.18 195.06,22.12 L195.06,22 C195.06,9.94 204.78,0.16 217.74,0.16 C230.7,0.16 240.3,9.82 240.3,21.88 L240.3,22 C240.3,34.06 230.58,43.84 217.62,43.84 Z M217.74,33.34 C224.16,33.34 228.42,28.18 228.42,22.12 L228.42,22 C228.42,15.94 224.04,10.66 217.62,10.66 C211.26,10.66 207,15.82 207,21.88 L207,22 C207,28.06 211.38,33.34 217.74,33.34 Z M244.36,43 L255.88,43 L255.88,19.96 L273.82,43 L284.02,43 L284.02,1 L272.5,1 L272.5,23.2 L255.22,1 L244.36,1 L244.36,43 Z M305.96,43.72 C316.16,43.72 322.94,38.62 322.94,30.04 L322.94,29.92 C322.94,22.06 316.94,18.94 307.28,16.84 C301.46,15.52 300.02,14.68 300.02,12.76 L300.02,12.64 C300.02,11.14 301.4,9.94 304.22,9.94 C307.94,9.94 312.14,11.38 315.98,14.08 L321.8,5.86 C317.24,2.2 311.66,0.28 304.52,0.28 C294.44,0.28 288.26,5.92 288.26,13.72 L288.26,13.84 C288.26,22.48 295.16,25 304.1,27.04 C309.8,28.36 311.18,29.32 311.18,31.06 L311.18,31.18 C311.18,32.98 309.5,34.06 306.38,34.06 C301.52,34.06 296.9,32.32 292.76,29.02 L286.28,36.76 C291.44,41.38 298.52,43.72 305.96,43.72 Z" id="logo" fill="#FFFFFF" fill-rule="nonzero"></path>
</svg>